<?xml version="1.0" encoding="UTF-8" standalone="no"?>
<!DOCTYPE svg PUBLIC "-//W3C//DTD SVG 1.1//EN" "http://www.w3.org/Graphics/SVG/1.1/DTD/svg11.dtd">
<svg width="100%" height="100%" viewBox="0 0 16 16" version="1.1" xmlns="http://www.w3.org/2000/svg" xmlns:xlink="http://www.w3.org/1999/xlink" xml:space="preserve" xmlns:serif="http://www.serif.com/" style="fill-rule:evenodd;clip-rule:evenodd;stroke-linecap:round;stroke-linejoin:round;stroke-miterlimit:1.5;">
    <g transform="matrix(0.0402491,0,0,0.0399092,-2.30377,-1.89696)">
        <g transform="matrix(1,0,0,1,5.10844,-10.0165)">
            <g transform="matrix(1.94015,0,0,1.94015,-287.804,-249.156)">
                <circle cx="305.897" cy="259.112" r="11" style="fill:rgb(165,239,172);"/>
            </g>
            <g transform="matrix(28.2164,0,0,28.4567,32.2817,26.7506)">
                <path d="M5.563,6.82L5.563,5.72L4.763,5.72L4.763,6.82L3.663,6.82L3.663,7.62L4.763,7.62L4.763,8.72L5.563,8.72L5.563,7.62L6.663,7.62L6.663,6.82L5.563,6.82Z" style="fill:rgb(165,239,172);"/>
            </g>
            <g transform="matrix(1.94015,0,0,1.94015,-245.119,-291.841)">
                <circle cx="305.897" cy="259.112" r="11" style="fill:rgb(165,239,172);"/>
            </g>
        </g>
        <path d="M254.789,310.454C229.346,310.153 203.758,308.284 176.546,304.862C153.466,334.964 144.155,380.311 109.771,375.899C97.766,374.346 87.998,365.48 85.293,353.681C71.72,292.19 74.925,202.583 95.772,143.418C96.369,141.735 97.362,140.219 98.667,138.999C115.458,123.766 164.103,117.249 165.384,120.383C165.39,120.427 165.405,120.47 165.43,120.507C165.928,121.276 176.546,137.522 176.546,137.522C203.099,134.695 229.552,133.256 256,133.184L257.24,133.188C283.273,133.301 309.315,134.739 335.454,137.522C335.454,137.522 346.072,121.276 346.57,120.507C346.595,120.47 346.61,120.427 346.616,120.383C347.897,117.249 396.542,123.766 413.333,138.999C414.638,140.219 415.631,141.735 416.228,143.418C437.075,202.583 440.28,292.19 426.707,353.681C424.002,365.48 414.234,374.346 402.229,375.899C367.845,380.311 358.534,334.964 335.454,304.862C307.81,308.338 281.843,310.212 256,310.467L254.789,310.454Z" style="fill:none;stroke:rgb(165,239,172);stroke-width:16.63px;"/>
    </g>
</svg>
